<?xml version="1.0" encoding="utf-8"?>
<!-- Generator: Adobe Illustrator 22.1.0, SVG Export Plug-In . SVG Version: 6.00 Build 0)  -->
<svg version="1.1" id="Layer_2" xmlns="http://www.w3.org/2000/svg" xmlns:xlink="http://www.w3.org/1999/xlink" x="0px" y="0px"
	 viewBox="0 0 271 126" style="enable-background:new 0 0 271 126;" xml:space="preserve">
<style type="text/css">
	.st0{fill:#252223;}
</style>
<g>
	<g>
		<g>
			<path class="st0" d="M86.9-0.2h7.7l12.1,24.6H96.6l-1.1-2.2h-9.7l-1.1,2.2H74.8L86.9-0.2z M92.9,16.8l-2.2-4.3l-2.2,4.3H92.9z"/>
			<path class="st0" d="M114.9,16.8c0.7,0.2,1.4,0.3,2.2,0.4c0.6,0.1,1.4,0.2,2.2,0.3c0.8,0.1,1.6,0.1,2.5,0.1
				c1.5,0,2.2-0.4,2.2-1.3c0-0.3-0.2-0.6-0.7-1c-0.4-0.3-1-0.7-1.7-1.1c-0.7-0.4-1.4-0.9-2.2-1.3c-0.8-0.5-1.5-1.1-2.2-1.7
				c-0.7-0.6-1.3-1.4-1.7-2.2c-0.4-0.8-0.7-1.7-0.7-2.7c0-1.2,0.3-2.2,0.8-3.1c0.5-0.9,1.3-1.6,2.3-2.2c1-0.6,2.1-1,3.4-1.3
				c1.3-0.3,2.7-0.5,4.1-0.5c0.8,0,1.5,0,2.3,0.1c0.8,0.1,1.5,0.1,2.1,0.2c0.7,0.1,1.4,0.1,2.1,0.2v6.9c-0.3,0-0.5,0-0.9-0.1
				c-0.3,0-0.5,0-0.9-0.1c-0.3,0-0.7,0-1,0c-0.2,0-0.4,0-0.7,0c-0.3,0-0.6,0-0.8,0.1c-0.3,0-0.5,0.1-0.7,0.3
				c-0.2,0.1-0.3,0.3-0.3,0.5c0,0.2,0.2,0.4,0.6,0.7c0.4,0.3,1,0.6,1.6,1c0.6,0.4,1.3,0.8,2.1,1.4c0.8,0.5,1.4,1.1,2.1,1.8
				c0.6,0.7,1.2,1.4,1.6,2.3c0.4,0.8,0.6,1.8,0.6,2.8c0,1.1-0.2,2.1-0.7,3c-0.4,0.9-1.1,1.8-2.1,2.5c-0.9,0.7-2.2,1.3-3.6,1.7
				c-1.5,0.4-3.2,0.6-5.2,0.6c-1.2,0-2.3,0-3.4-0.1c-1-0.1-2-0.2-2.8-0.3c-0.9-0.1-1.8-0.3-2.5-0.4V16.8z"/>
			<path class="st0" d="M145.1-0.2h10.8v24.6h-10.8V-0.2z"/>
			<path class="st0" d="M176.4-0.2h7.7l12.1,24.6h-10.1l-1.1-2.2h-9.7l-1.1,2.2h-10.1L176.4-0.2z M182.4,16.8l-2.2-4.3l-2.2,4.3
				H182.4z"/>
		</g>
		<g>
			<path class="st0" d="M20.1,9h49.4v6.2H20.1V9z"/>
			<path class="st0" d="M201.5,9h49.4v6.2h-49.4V9z"/>
		</g>
		<g>
			<path class="st0" d="M20.1,53.3c0-2.5,0.4-4.8,1.1-6.9c0.8-2,1.8-3.8,3.1-5.2c1.3-1.5,2.8-2.6,4.5-3.3c1.7-0.8,3.6-1.2,5.5-1.2
				c1.5,0,2.9,0.2,4.1,0.5c1.2,0.3,2.2,0.7,3.1,1.2c1,0.5,1.9,1.1,2.6,1.7L40,48.9c-0.4-0.4-0.9-0.7-1.4-1.1c-0.5-0.3-1-0.5-1.6-0.7
				c-0.6-0.2-1.4-0.4-2.2-0.4c-0.8,0-1.6,0.2-2.3,0.5c-0.7,0.3-1.3,0.8-1.8,1.4c-0.5,0.6-0.9,1.3-1.2,2.1c-0.3,0.8-0.4,1.7-0.4,2.6
				c0,0.9,0.2,1.8,0.5,2.6c0.3,0.8,0.7,1.5,1.3,2.1c0.5,0.6,1.2,1.1,1.9,1.4c0.7,0.3,1.5,0.5,2.4,0.5c0.9,0,1.6-0.1,2.3-0.4
				c0.7-0.3,1.2-0.5,1.7-0.9c0.5-0.3,1-0.8,1.4-1.2l4.3,8.8C43.9,67,43,67.6,42,68.1c-0.9,0.4-1.9,0.9-3.1,1.2s-2.6,0.6-4.2,0.6
				c-2.1,0-4.1-0.4-5.8-1.2c-1.8-0.8-3.3-1.9-4.6-3.4c-1.3-1.5-2.3-3.2-3-5.2C20.5,58,20.1,55.8,20.1,53.3z"/>
			<path class="st0" d="M75.1,37.5h9.3c1.7,0,3.3,0.3,4.8,0.8c1.5,0.5,2.8,1.3,3.8,2.4c1.1,1,1.9,2.3,2.5,3.9
				c0.6,1.5,0.9,3.3,0.9,5.3c0,1.6-0.2,2.9-0.6,4c-0.4,1.1-0.8,2-1.3,2.8c-0.5,0.8-1.2,1.5-1.8,2.1L98,69.1H87.8l-4.1-8v8h-8.6V37.5
				z M83.8,53h0.4c1,0,1.9-0.3,2.6-0.8c0.7-0.5,1.1-1.4,1.1-2.7c0-1.3-0.4-2.2-1.1-2.7c-0.7-0.5-1.6-0.8-2.6-0.8h-0.4V53z"/>
			<path class="st0" d="M138.6,37.5h6.5l10.3,31.6h-8.5l-0.9-2.8h-8.2l-0.9,2.8h-8.5L138.6,37.5z M143.7,59.3l-1.8-5.6l-1.8,5.6
				H143.7z"/>
			<path class="st0" d="M185.9,37.5h16v8.3h-7.3v3.5h7.2v7.9h-7.2v12h-8.6V37.5z"/>
			<path class="st0" d="M237,45.8h-5v-8.3h18.9v8.3h-5v23.3H237V45.8z"/>
		</g>
		<g>
			<path class="st0" d="M20.1,81.8h14.1v6.3h-6.5v2.7h6.4v6h-6.4v2.8h6.7v6.3H20.1V81.8z"/>
			<path class="st0" d="M50.6,93.4l-6.4-11.6h8.4l2.2,3.9l2.2-3.9h8.4l-6.4,11.6l6.8,12.4h-8.4l-2.7-4.8l-2.6,4.8h-8.4L50.6,93.4z"
				/>
			<path class="st0" d="M73.4,93.8c0-1.9,0.3-3.7,1-5.2c0.7-1.5,1.6-2.9,2.7-4c1.2-1.1,2.5-1.9,4-2.5c1.5-0.6,3.2-0.9,4.9-0.9
				c1.4,0,2.6,0.1,3.7,0.4c1.1,0.3,2,0.6,2.8,0.9c0.9,0.4,1.7,0.8,2.3,1.3l-3.8,6.7c-0.4-0.3-0.8-0.6-1.3-0.8
				c-0.4-0.2-0.9-0.4-1.5-0.6c-0.6-0.2-1.2-0.3-1.9-0.3c-0.7,0-1.4,0.1-2.1,0.4c-0.6,0.3-1.2,0.6-1.6,1.1c-0.5,0.5-0.8,1-1.1,1.6
				c-0.3,0.6-0.4,1.3-0.4,2c0,0.7,0.1,1.3,0.4,2s0.7,1.1,1.1,1.6c0.5,0.5,1,0.8,1.7,1.1c0.6,0.3,1.4,0.4,2.1,0.4
				c0.8,0,1.5-0.1,2.1-0.3c0.6-0.2,1.1-0.4,1.5-0.6c0.5-0.3,0.9-0.6,1.3-0.9l3.8,6.7c-0.6,0.5-1.4,1-2.3,1.4
				c-0.8,0.3-1.7,0.6-2.8,0.9c-1.1,0.3-2.3,0.4-3.7,0.4c-1.9,0-3.6-0.3-5.2-0.9c-1.6-0.6-3-1.5-4.1-2.6c-1.2-1.1-2.1-2.4-2.7-4
				C73.7,97.4,73.4,95.7,73.4,93.8z"/>
			<path class="st0" d="M106.1,81.8h7.7V90h4.3v-8.2h7.7v24H118v-8.9h-4.3v8.9h-7.7V81.8z"/>
			<path class="st0" d="M145.4,81.8h5.8l9.1,24h-7.6l-0.8-2.2h-7.3l-0.8,2.2h-7.6L145.4,81.8z M149.9,98.3l-1.6-4.2l-1.6,4.2H149.9z
				"/>
			<path class="st0" d="M170.9,81.8h6.3l6.6,9.2v-9.2h7.5v24H185l-6.6-9.2v9.2h-7.5V81.8z"/>
			<path class="st0" d="M219.3,90c-0.4-0.4-1-0.7-1.6-0.9c-0.6-0.2-1.3-0.3-1.9-0.3c-0.7,0-1.3,0.1-1.9,0.4c-0.6,0.3-1.1,0.6-1.5,1
				c-0.4,0.4-0.8,1-1,1.6c-0.2,0.6-0.4,1.3-0.4,2c0,0.7,0.1,1.4,0.4,2c0.3,0.6,0.6,1.2,1.1,1.6c0.5,0.4,1,0.8,1.6,1
				c0.6,0.3,1.3,0.4,2,0.4c0.8,0,1.6-0.2,2.2-0.5c0.7-0.3,1.2-0.8,1.7-1.4h-2.2v-5h9.2v8c-0.6,1-1.2,1.9-2,2.7
				c-0.8,0.8-1.6,1.5-2.6,2.1c-0.9,0.6-2,1-3.1,1.3c-1.1,0.3-2.2,0.5-3.4,0.5c-1.7,0-3.4-0.3-4.9-1c-1.5-0.6-2.9-1.5-4-2.7
				c-1.1-1.1-2-2.5-2.7-4c-0.7-1.5-1-3.2-1-5c0-1.7,0.3-3.4,0.9-4.9c0.6-1.5,1.5-2.9,2.6-4c1.1-1.1,2.4-2,3.9-2.7
				c1.5-0.7,3.1-1,4.8-1c1.3,0,2.5,0.1,3.5,0.4c1,0.3,1.8,0.6,2.5,0.9c0.8,0.4,1.5,0.8,2,1.3L219.3,90z"/>
			<path class="st0" d="M236.5,81.8h14.1v6.3h-6.5v2.7h6.4v6h-6.4v2.8h6.7v6.3h-14.4V81.8z"/>
		</g>
	</g>
	<g>
		<path class="st0" d="M122,115h3.7v8.2h3.1v2.9H122V115z"/>
		<path class="st0" d="M130.9,115h3.7v8.2h3.1v2.9h-6.7V115z"/>
		<path class="st0" d="M138.9,120.6c0-0.9,0.2-1.7,0.5-2.4c0.3-0.7,0.7-1.3,1.3-1.8c0.5-0.5,1.2-0.9,1.9-1.2
			c0.7-0.3,1.5-0.4,2.3-0.4c0.6,0,1.2,0.1,1.7,0.2c0.5,0.1,0.9,0.3,1.3,0.4c0.4,0.2,0.8,0.4,1.1,0.6L147,119
			c-0.2-0.1-0.4-0.3-0.6-0.4c-0.2-0.1-0.4-0.2-0.7-0.3c-0.3-0.1-0.6-0.1-0.9-0.1c-0.3,0-0.7,0.1-0.9,0.2c-0.3,0.1-0.5,0.3-0.8,0.5
			c-0.2,0.2-0.4,0.5-0.5,0.7c-0.1,0.3-0.2,0.6-0.2,0.9c0,0.3,0.1,0.6,0.2,0.9c0.1,0.3,0.3,0.5,0.5,0.7c0.2,0.2,0.5,0.4,0.8,0.5
			s0.6,0.2,1,0.2c0.4,0,0.7,0,0.9-0.1c0.3-0.1,0.5-0.2,0.7-0.3c0.2-0.1,0.4-0.3,0.6-0.4l1.7,3.1c-0.3,0.2-0.7,0.5-1.1,0.6
			c-0.4,0.2-0.8,0.3-1.3,0.4c-0.5,0.1-1.1,0.2-1.7,0.2c-0.9,0-1.7-0.1-2.4-0.4c-0.7-0.3-1.4-0.7-1.9-1.2c-0.5-0.5-0.9-1.1-1.2-1.8
			C139.1,122.2,138.9,121.5,138.9,120.6z"/>
	</g>
</g>
</svg>
