<?xml version="1.0" encoding="utf-8"?>
<!-- Generator: Adobe Illustrator 22.1.0, SVG Export Plug-In . SVG Version: 6.00 Build 0)  -->
<svg version="1.1" id="Layer_2" xmlns="http://www.w3.org/2000/svg" xmlns:xlink="http://www.w3.org/1999/xlink" x="0px" y="0px"
	 viewBox="0 0 203 88" style="enable-background:new 0 0 203 88;" xml:space="preserve">
<style type="text/css">
	.st0{fill:#FFC663;}
	.st1{fill:#FFFCF8;}
</style>
<g>
	<path class="st0" d="M202.2,87.8H0.8V0.2h201.5V87.8z M5.8,82.8h191.5V5.2H5.8V82.8z"/>
</g>
<g>
	<path class="st1" d="M79.2,44c0-2.5,0.4-4.8,1.1-6.9c0.8-2,1.8-3.8,3.1-5.2c1.3-1.5,2.8-2.6,4.5-3.3c1.7-0.8,3.6-1.2,5.5-1.2
		c1.5,0,2.9,0.2,4.1,0.5c1.2,0.3,2.2,0.7,3.1,1.2c1,0.5,1.9,1.1,2.6,1.7l-4.3,8.8c-0.4-0.4-0.9-0.7-1.4-1.1c-0.5-0.3-1-0.5-1.6-0.7
		c-0.6-0.2-1.4-0.4-2.2-0.4c-0.8,0-1.6,0.2-2.3,0.5c-0.7,0.3-1.3,0.8-1.8,1.4c-0.5,0.6-0.9,1.3-1.2,2.1C88.2,42.2,88,43,88,44
		c0,0.9,0.2,1.8,0.5,2.6c0.3,0.8,0.7,1.5,1.3,2.1c0.5,0.6,1.2,1.1,1.9,1.4c0.7,0.3,1.5,0.5,2.4,0.5c0.9,0,1.6-0.1,2.3-0.4
		c0.7-0.3,1.2-0.5,1.7-0.9c0.5-0.3,1-0.8,1.4-1.2l4.3,8.8c-0.7,0.7-1.6,1.3-2.6,1.9c-0.9,0.4-1.9,0.9-3.1,1.2s-2.6,0.6-4.2,0.6
		c-2.1,0-4.1-0.4-5.8-1.2c-1.8-0.8-3.3-1.9-4.6-3.4c-1.3-1.5-2.3-3.2-3-5.2C79.6,48.7,79.2,46.4,79.2,44z"/>
	<path class="st1" d="M38.6,27.4H49l16.4,33.2H51.8l-1.4-3H37.3l-1.4,3H22.3L38.6,27.4z M46.7,50.3l-2.9-5.8l-2.9,5.8H46.7z"/>
	<path class="st1" d="M159.7,43.5l-8.8-16h11.6l3,5.4l3-5.4h11.6l-8.8,16l9.5,17.2h-11.6l-3.7-6.6l-3.6,6.6h-11.6L159.7,43.5z"/>
	<g>
		<rect x="123" y="8.9" transform="matrix(0.84 -0.5425 0.5425 0.84 -2.1997 75.5394)" class="st1" width="8" height="65.1"/>
	</g>
</g>
</svg>
